<mxfile host="app.diagrams.net" modified="2024-07-22T19:22:27.357Z" agent="Mozilla/5.0 (Macintosh; Intel Mac OS X 10_15_7) AppleWebKit/537.36 (KHTML, like Gecko) Chrome/125.0.0.0 Safari/537.36" version="24.4.6" etag="cbx08385Es_qInkBVkic" type="github">
  <diagram name="Страница — 1" id="sW2h8WZT_fUMB0-Amgkw">
    <mxGraphModel>
      <root>
        <mxCell id="0" />
        <mxCell id="1" parent="0" />
      </root>
    </mxGraphModel>
  </diagram>
</mxfile>
